<?xml version="1.0" encoding="utf-8"?>
<!-- Generator: Adobe Illustrator 16.0.0, SVG Export Plug-In . SVG Version: 6.00 Build 0)  -->
<!DOCTYPE svg PUBLIC "-//W3C//DTD SVG 1.1//EN" "http://www.w3.org/Graphics/SVG/1.1/DTD/svg11.dtd">
<svg version="1.1" id="Layer_1" xmlns="http://www.w3.org/2000/svg" xmlns:xlink="http://www.w3.org/1999/xlink" x="0px" y="0px"
	 width="197px" height="56px" viewBox="0 0 197 56" enable-background="new 0 0 197 56" xml:space="preserve">
<path fill="#0D0D0C" d="M102.625,9.016h12.703v4.313h-4.188V32h-4.438V13.328h-4.078V9.016z M125.844,14.563
	c1.604,0,3.109,0.401,4.516,1.203c1.417,0.802,2.521,1.891,3.313,3.266s1.188,2.859,1.188,4.453c0,1.604-0.401,3.104-1.203,4.5
	c-0.791,1.396-1.875,2.49-3.25,3.281c-1.375,0.781-2.891,1.172-4.547,1.172c-2.438,0-4.521-0.865-6.25-2.594
	c-1.719-1.74-2.578-3.849-2.578-6.328c0-2.656,0.974-4.87,2.922-6.641C121.661,15.333,123.625,14.563,125.844,14.563z
	 M125.906,18.578c-1.323,0-2.428,0.463-3.313,1.391c-0.875,0.917-1.313,2.094-1.313,3.531c0,1.479,0.433,2.677,1.297,3.594
	c0.875,0.917,1.979,1.375,3.313,1.375c1.333,0,2.442-0.463,3.328-1.391c0.885-0.927,1.328-2.12,1.328-3.578
	s-0.438-2.641-1.313-3.547C128.37,19.037,127.26,18.578,125.906,18.578z M138.344,15h4.313v8.188c0,1.594,0.109,2.703,0.328,3.328
	c0.219,0.615,0.567,1.094,1.047,1.438c0.49,0.344,1.089,0.516,1.797,0.516s1.307-0.167,1.797-0.5c0.5-0.344,0.87-0.844,1.109-1.5
	c0.177-0.49,0.266-1.537,0.266-3.141V15h4.281v7.203c0,2.969-0.234,5-0.703,6.094c-0.573,1.334-1.417,2.359-2.531,3.078
	c-1.115,0.709-2.531,1.063-4.25,1.063c-1.865,0-3.375-0.416-4.531-1.25c-1.146-0.834-1.953-1.994-2.422-3.484
	c-0.334-1.031-0.5-2.906-0.5-5.625V15z M156.578,15h3.656v2.141c0.396-0.844,0.922-1.484,1.578-1.922s1.375-0.656,2.156-0.656
	c0.553,0,1.13,0.146,1.734,0.438l-1.328,3.672c-0.5-0.25-0.911-0.375-1.234-0.375c-0.656,0-1.214,0.406-1.672,1.219
	c-0.447,0.813-0.672,2.406-0.672,4.781l0.016,0.828V32h-4.234V15z M167.797,15h4.281v1.953c0.729-0.802,1.537-1.401,2.422-1.797
	c0.896-0.396,1.87-0.594,2.922-0.594c1.063,0,2.021,0.26,2.875,0.781c0.854,0.521,1.542,1.281,2.063,2.281
	c0.677-1,1.506-1.76,2.484-2.281c0.989-0.521,2.067-0.781,3.234-0.781c1.208,0,2.271,0.281,3.188,0.844
	c0.916,0.563,1.573,1.297,1.969,2.203c0.406,0.906,0.609,2.38,0.609,4.422V32h-4.297v-8.625c0-1.927-0.24-3.229-0.719-3.906
	c-0.479-0.688-1.198-1.031-2.156-1.031c-0.729,0-1.386,0.208-1.969,0.625c-0.573,0.417-1,0.995-1.281,1.734
	c-0.281,0.729-0.422,1.906-0.422,3.531V32h-4.297v-8.234c0-1.521-0.114-2.62-0.344-3.297c-0.219-0.688-0.553-1.198-1-1.531
	c-0.448-0.333-0.989-0.5-1.625-0.5c-0.708,0-1.354,0.213-1.938,0.641c-0.573,0.417-1.005,1.005-1.297,1.766
	c-0.281,0.76-0.422,1.958-0.422,3.594V32h-4.281V15z"/>
<path fill="#0D0D0C" d="M103.541,53c-0.1,0-0.15-0.045-0.15-0.135V43.04c0-0.09,0.051-0.136,0.15-0.136h4.815
	c0.079,0,0.125,0.011,0.135,0.031c0.02,0.01,0.03,0.049,0.03,0.119v0.766c0,0.08-0.011,0.13-0.03,0.15
	c-0.021,0.01-0.065,0.014-0.135,0.014h-3.48c-0.05,0-0.08,0.011-0.09,0.031c-0.011,0.01-0.015,0.039-0.015,0.09v3.149
	c0,0.05,0.004,0.085,0.015,0.104c0.021,0.011,0.05,0.016,0.09,0.016h2.806c0.079,0,0.125,0.01,0.135,0.029
	c0.02,0.021,0.029,0.076,0.029,0.166v0.689c0,0.08-0.01,0.135-0.029,0.165c-0.01,0.021-0.056,0.03-0.135,0.03h-2.806
	c-0.05,0-0.08,0.005-0.09,0.016c-0.011,0.01-0.015,0.039-0.015,0.09v3.225c0,0.05,0.004,0.085,0.015,0.105
	c0.01,0.02,0.04,0.029,0.09,0.029h3.45c0.1,0,0.155,0.01,0.165,0.03c0.02,0.021,0.03,0.075,0.03,0.165v0.689
	c0,0.09-0.016,0.146-0.046,0.166c-0.02,0.02-0.069,0.029-0.149,0.029H103.541z M110.384,53c-0.05,0-0.085-0.02-0.104-0.061
	c-0.011-0.049-0.011-0.1,0-0.149c0.01-0.06,0.015-0.104,0.015-0.136c0.01-0.069,0.05-0.209,0.12-0.42
	c0.08-0.209,0.185-0.465,0.314-0.764c0.141-0.301,0.301-0.625,0.48-0.976s0.38-0.7,0.6-1.05c0.03-0.051,0.04-0.096,0.03-0.135
	c0-0.051-0.02-0.101-0.06-0.15c-0.23-0.32-0.436-0.66-0.615-1.02c-0.17-0.371-0.32-0.716-0.45-1.035
	c-0.12-0.32-0.215-0.58-0.285-0.78c-0.06-0.21-0.09-0.315-0.09-0.315c-0.01-0.06,0.01-0.09,0.061-0.09h1.215
	c0.05,0,0.085,0.01,0.104,0.03c0.03,0.01,0.056,0.055,0.075,0.135c0.021,0.069,0.065,0.226,0.135,0.465
	c0.08,0.229,0.175,0.49,0.285,0.78s0.23,0.564,0.36,0.824c0.14,0.261,0.279,0.455,0.42,0.586c0.05,0,0.095,0,0.135,0
	s0.085,0,0.135,0c0.15-0.131,0.29-0.32,0.42-0.57c0.141-0.26,0.266-0.529,0.375-0.811c0.11-0.289,0.2-0.549,0.271-0.779
	c0.07-0.24,0.11-0.395,0.12-0.465c0.02-0.08,0.045-0.131,0.075-0.15c0.029-0.029,0.09-0.045,0.18-0.045h0.93
	c0.03,0,0.061,0.01,0.09,0.03c0.04,0.01,0.056,0.05,0.045,0.12c-0.01,0.07-0.045,0.209-0.104,0.42
	c-0.061,0.21-0.146,0.46-0.255,0.75c-0.11,0.289-0.25,0.605-0.42,0.945c-0.17,0.33-0.37,0.654-0.601,0.975
	c-0.069,0.07-0.064,0.16,0.016,0.27c0.25,0.35,0.465,0.711,0.645,1.08c0.18,0.36,0.33,0.7,0.45,1.02
	c0.12,0.311,0.21,0.57,0.27,0.781c0.07,0.209,0.11,0.34,0.12,0.39c0.021,0.09,0.021,0.165,0,0.225
	c-0.01,0.05-0.045,0.075-0.104,0.075h-0.96c-0.08,0-0.141-0.01-0.181-0.029c-0.029-0.031-0.055-0.086-0.074-0.166
	c-0.03-0.1-0.085-0.275-0.165-0.525s-0.181-0.524-0.301-0.824c-0.109-0.301-0.239-0.585-0.39-0.855
	c-0.14-0.27-0.29-0.479-0.45-0.629c-0.06,0-0.1,0-0.12,0c-0.01,0-0.024,0-0.045,0c-0.02,0-0.06,0-0.12,0
	c-0.18,0.239-0.35,0.524-0.51,0.854c-0.149,0.319-0.285,0.635-0.404,0.944c-0.12,0.301-0.216,0.556-0.285,0.766
	c-0.061,0.199-0.09,0.3-0.09,0.3c-0.021,0.08-0.046,0.13-0.075,0.149c-0.03,0.011-0.075,0.016-0.136,0.016H110.384z M118.114,54.545
	c-0.03-0.529-0.056-1.175-0.075-1.936c-0.01-0.76-0.015-1.645-0.015-2.654c0.01-0.359,0.015-0.745,0.015-1.155
	c0.01-0.42,0.025-0.829,0.045-1.229c0.03-0.4,0.065-0.75,0.105-1.051c0.01-0.08,0.034-0.149,0.074-0.209
	c0.051-0.061,0.155-0.11,0.315-0.15c0.28-0.1,0.62-0.186,1.02-0.256c0.41-0.069,0.86-0.104,1.351-0.104
	c0.97,0,1.705,0.285,2.205,0.854c0.5,0.561,0.75,1.445,0.75,2.656c0,0.479-0.051,0.93-0.15,1.35c-0.09,0.42-0.229,0.79-0.42,1.109
	c-0.19,0.32-0.43,0.586-0.72,0.795c-0.29,0.201-0.63,0.33-1.021,0.391c-0.18,0.04-0.395,0.064-0.645,0.074
	c-0.24,0.021-0.476,0.025-0.705,0.016c-0.23-0.01-0.425-0.029-0.585-0.061c-0.07-0.02-0.125-0.029-0.165-0.029
	s-0.065,0.029-0.075,0.09c0,0.08,0,0.2,0,0.359c0,0.16,0,0.33,0,0.511c0.01,0.19,0.015,0.354,0.015,0.495
	c0.011,0.09,0.011,0.154,0,0.195c0,0.049-0.055,0.074-0.165,0.074h-0.96c-0.06,0-0.104-0.015-0.135-0.045
	C118.144,54.615,118.124,54.585,118.114,54.545z M119.404,51.5c0,0.08,0.02,0.135,0.06,0.165s0.085,0.05,0.135,0.06
	c0.19,0.061,0.4,0.11,0.63,0.15c0.24,0.029,0.45,0.045,0.631,0.045c0.18,0,0.364-0.035,0.555-0.105
	c0.2-0.069,0.385-0.194,0.555-0.375c0.17-0.18,0.311-0.439,0.42-0.779c0.11-0.35,0.165-0.801,0.165-1.35
	c0-0.94-0.149-1.586-0.45-1.936c-0.3-0.359-0.694-0.54-1.185-0.54c-0.24,0-0.47,0.021-0.69,0.06c-0.22,0.03-0.414,0.08-0.585,0.15
	c-0.05,0.02-0.09,0.045-0.119,0.075c-0.03,0.03-0.046,0.069-0.046,0.12c-0.02,0.24-0.034,0.515-0.045,0.824
	c-0.01,0.311-0.02,0.636-0.029,0.976c0,0.33-0.005,0.655-0.016,0.976c0,0.319,0,0.609,0,0.869S119.394,51.35,119.404,51.5z
	 M126.428,52.865v-10.35c0-0.091,0.05-0.136,0.15-0.136h1.035c0.1,0,0.149,0.045,0.149,0.136v10.35c0,0.09-0.05,0.135-0.149,0.135
	h-1.035C126.478,53,126.428,52.955,126.428,52.865z M133.447,53.09c-0.83,0-1.476-0.154-1.936-0.465s-0.779-0.74-0.96-1.29
	c-0.17-0.56-0.255-1.19-0.255-1.89c0-0.7,0.095-1.32,0.285-1.86c0.2-0.55,0.53-0.979,0.99-1.29s1.085-0.465,1.875-0.465
	s1.415,0.154,1.875,0.465s0.785,0.74,0.975,1.29c0.2,0.54,0.3,1.16,0.3,1.86c0,0.699-0.09,1.324-0.27,1.875
	c-0.17,0.55-0.485,0.984-0.945,1.305C134.932,52.936,134.287,53.09,133.447,53.09z M133.432,52.055c0.67,0,1.136-0.225,1.396-0.675
	c0.27-0.46,0.405-1.101,0.405-1.92c0-0.81-0.146-1.435-0.436-1.875s-0.745-0.66-1.365-0.66c-0.609,0-1.064,0.22-1.364,0.66
	c-0.29,0.44-0.436,1.065-0.436,1.875c0,0.83,0.135,1.47,0.405,1.92C132.307,51.83,132.772,52.055,133.432,52.055z M141.369,45.846
	c0.649,0,1.2,0.09,1.649,0.27c0.061,0.029,0.101,0.06,0.12,0.09c0.03,0.029,0.035,0.07,0.016,0.12l-0.181,0.69
	c-0.02,0.06-0.045,0.094-0.074,0.104c-0.021,0.01-0.061,0.005-0.12-0.015c-0.181-0.061-0.375-0.101-0.585-0.121
	c-0.21-0.029-0.396-0.045-0.556-0.045s-0.314,0.016-0.465,0.045c-0.149,0.021-0.285,0.045-0.405,0.076
	c-0.109,0.029-0.189,0.06-0.239,0.09c-0.051,0.029-0.101,0.064-0.15,0.104s-0.075,0.13-0.075,0.271v5.265
	c0,0.09-0.015,0.149-0.045,0.181c-0.03,0.02-0.075,0.029-0.135,0.029h-1.021c-0.029,0-0.06-0.01-0.09-0.029
	c-0.029-0.021-0.045-0.07-0.045-0.15v-6.09c0-0.15,0.021-0.25,0.061-0.301c0.04-0.05,0.104-0.095,0.194-0.135
	c0.29-0.141,0.636-0.25,1.035-0.33C140.669,45.885,141.039,45.846,141.369,45.846z M144.79,49.445c0-0.471,0.045-0.92,0.135-1.35
	c0.101-0.431,0.26-0.816,0.48-1.156c0.229-0.35,0.54-0.619,0.93-0.81c0.39-0.2,0.89-0.3,1.5-0.3c0.63,0,1.13,0.09,1.5,0.27
	c0.38,0.18,0.665,0.42,0.855,0.721c0.199,0.3,0.329,0.63,0.39,0.99c0.06,0.359,0.09,0.719,0.09,1.08c0,0.389-0.04,0.639-0.12,0.75
	c-0.08,0.1-0.2,0.149-0.359,0.149h-3.915c-0.04,0-0.075,0.01-0.105,0.03c-0.03,0.02-0.045,0.074-0.045,0.164
	c0.01,0.41,0.085,0.775,0.225,1.096c0.15,0.32,0.37,0.574,0.66,0.766c0.3,0.18,0.67,0.27,1.11,0.27c0.34,0,0.68-0.045,1.02-0.135
	c0.341-0.101,0.61-0.205,0.811-0.315c0.1-0.05,0.175-0.08,0.225-0.09c0.061-0.011,0.115,0.04,0.165,0.149l0.24,0.45
	c0.04,0.07,0.05,0.125,0.03,0.165c-0.021,0.03-0.07,0.07-0.15,0.12c-0.33,0.21-0.729,0.37-1.2,0.479
	c-0.46,0.101-0.93,0.15-1.41,0.15c-0.63,0-1.145-0.09-1.545-0.27c-0.39-0.19-0.699-0.45-0.93-0.78
	c-0.22-0.34-0.375-0.729-0.465-1.17C144.83,50.43,144.79,49.955,144.79,49.445z M149.32,48.68c0-0.34-0.045-0.645-0.136-0.914
	c-0.079-0.271-0.229-0.486-0.449-0.646c-0.21-0.17-0.521-0.255-0.931-0.255c-0.3,0-0.555,0.06-0.765,0.18
	c-0.21,0.109-0.38,0.255-0.51,0.436c-0.12,0.18-0.21,0.379-0.271,0.6c-0.06,0.21-0.1,0.415-0.12,0.615
	c-0.01,0.119-0.01,0.199,0,0.24c0.021,0.029,0.07,0.045,0.15,0.045h2.805c0.09,0,0.15-0.016,0.181-0.045
	C149.315,48.904,149.33,48.82,149.32,48.68z M160.303,53c-0.14,0-0.234-0.061-0.285-0.18c-0.22-0.42-0.444-0.945-0.675-1.575
	c-0.229-0.63-0.455-1.31-0.675-2.04c-0.22-0.74-0.43-1.484-0.63-2.234c-0.19-0.75-0.355-1.461-0.495-2.131
	c-0.13-0.67-0.23-1.25-0.3-1.74c-0.01-0.06-0.01-0.104,0-0.135c0.02-0.04,0.06-0.061,0.12-0.061c0.02,0,0.074,0,0.165,0
	c0.1,0,0.21,0,0.33,0c0.13,0,0.244,0,0.345,0c0.109,0,0.18,0,0.21,0c0.07,0,0.115,0.011,0.135,0.031
	c0.021,0.02,0.035,0.06,0.045,0.119c0.061,0.4,0.155,0.916,0.285,1.545c0.13,0.631,0.305,1.385,0.525,2.266
	c0.159,0.63,0.31,1.205,0.449,1.725c0.15,0.52,0.29,0.985,0.421,1.395c0.13,0.4,0.25,0.74,0.359,1.021
	c0.021,0.04,0.035,0.075,0.045,0.104c0.021,0.021,0.04,0.031,0.061,0.031c0.02,0,0.035,0,0.045,0s0.02,0,0.029,0
	c0.03,0,0.051-0.011,0.061-0.031c0.02-0.029,0.035-0.064,0.045-0.104c0.08-0.19,0.17-0.43,0.27-0.72
	c0.101-0.29,0.205-0.605,0.315-0.945c0.12-0.34,0.23-0.68,0.33-1.02c0.11-0.35,0.205-0.676,0.285-0.975
	c0.09-0.301,0.16-0.561,0.21-0.781c0.01-0.319,0.01-0.67,0-1.049c0-0.381-0.01-0.746-0.03-1.096c-0.01-0.35-0.02-0.65-0.03-0.9
	c0-0.25,0-0.395,0-0.435c0-0.06,0.006-0.104,0.016-0.135c0.01-0.04,0.045-0.06,0.104-0.06c0.03,0,0.096,0,0.195,0
	c0.11,0,0.225,0,0.345,0s0.23,0,0.33,0c0.11,0,0.18,0,0.21,0c0.061,0,0.101,0.01,0.12,0.029c0.021,0.02,0.03,0.064,0.03,0.135
	c0,0.45,0.015,0.905,0.045,1.365c0.04,0.45,0.085,0.87,0.135,1.26c0.061,0.391,0.12,0.735,0.18,1.035
	c0.131,0.721,0.306,1.436,0.525,2.145c0.22,0.711,0.46,1.41,0.72,2.101c0.03,0.069,0.051,0.12,0.061,0.149
	c0.02,0.021,0.04,0.031,0.06,0.031c0.021,0,0.035,0,0.045,0c0.011,0,0.025,0,0.045,0c0.021,0,0.045-0.035,0.075-0.105
	c0.09-0.2,0.2-0.495,0.33-0.885c0.13-0.391,0.275-0.855,0.436-1.396c0.159-0.54,0.319-1.13,0.479-1.771
	c0.12-0.439,0.22-0.834,0.3-1.185c0.09-0.35,0.165-0.675,0.226-0.975c0.069-0.31,0.13-0.601,0.18-0.87
	c0.06-0.28,0.115-0.564,0.165-0.855c0.01-0.08,0.025-0.129,0.045-0.149c0.03-0.03,0.07-0.046,0.12-0.046c0.03,0,0.095,0,0.195,0
	c0.1,0,0.21,0,0.329,0c0.131,0,0.245,0,0.346,0c0.1,0,0.165,0,0.194,0c0.12,0,0.16,0.076,0.12,0.226
	c-0.08,0.431-0.194,0.97-0.345,1.62s-0.32,1.359-0.51,2.13c-0.19,0.761-0.396,1.515-0.615,2.265c-0.21,0.75-0.425,1.451-0.645,2.101
	c-0.221,0.64-0.436,1.159-0.646,1.56c-0.01,0.041-0.04,0.086-0.09,0.135c-0.04,0.041-0.09,0.061-0.15,0.061c-0.08,0-0.194,0-0.345,0
	c-0.14,0-0.285,0-0.435,0c-0.141,0-0.256,0-0.346,0c-0.05,0-0.095-0.025-0.135-0.075s-0.07-0.085-0.09-0.104
	c-0.15-0.32-0.311-0.69-0.48-1.11s-0.335-0.875-0.494-1.364c-0.15-0.49-0.301-0.99-0.45-1.5c-0.03-0.101-0.061-0.16-0.09-0.181
	c-0.03-0.03-0.07,0.024-0.12,0.165c-0.15,0.52-0.29,0.98-0.42,1.38c-0.12,0.39-0.235,0.745-0.346,1.065
	c-0.1,0.31-0.199,0.59-0.3,0.84c-0.1,0.25-0.205,0.48-0.314,0.689c-0.021,0.07-0.061,0.12-0.12,0.15
	c-0.051,0.029-0.096,0.045-0.136,0.045c-0.079,0-0.189,0-0.329,0c-0.141,0-0.28,0-0.421,0C160.473,53,160.373,53,160.303,53z
	 M173.238,53.09c-0.83,0-1.476-0.154-1.936-0.465s-0.779-0.74-0.96-1.29c-0.17-0.56-0.255-1.19-0.255-1.89
	c0-0.7,0.095-1.32,0.285-1.86c0.2-0.55,0.53-0.979,0.99-1.29s1.085-0.465,1.875-0.465s1.415,0.154,1.875,0.465
	s0.785,0.74,0.975,1.29c0.2,0.54,0.3,1.16,0.3,1.86c0,0.699-0.09,1.324-0.27,1.875c-0.17,0.55-0.485,0.984-0.945,1.305
	C174.723,52.936,174.078,53.09,173.238,53.09z M173.223,52.055c0.67,0,1.136-0.225,1.396-0.675c0.27-0.46,0.405-1.101,0.405-1.92
	c0-0.81-0.146-1.435-0.436-1.875s-0.745-0.66-1.365-0.66c-0.609,0-1.064,0.22-1.364,0.66c-0.29,0.44-0.436,1.065-0.436,1.875
	c0,0.83,0.135,1.47,0.405,1.92C172.098,51.83,172.563,52.055,173.223,52.055z M181.16,45.846c0.649,0,1.2,0.09,1.649,0.27
	c0.061,0.029,0.101,0.06,0.12,0.09c0.03,0.029,0.035,0.07,0.016,0.12l-0.181,0.69c-0.02,0.06-0.045,0.094-0.074,0.104
	c-0.021,0.01-0.061,0.005-0.12-0.015c-0.181-0.061-0.375-0.101-0.585-0.121c-0.21-0.029-0.396-0.045-0.556-0.045
	s-0.314,0.016-0.465,0.045c-0.149,0.021-0.285,0.045-0.405,0.076c-0.109,0.029-0.189,0.06-0.239,0.09
	c-0.051,0.029-0.101,0.064-0.15,0.104s-0.075,0.13-0.075,0.271v5.265c0,0.09-0.015,0.149-0.045,0.181
	c-0.03,0.02-0.075,0.029-0.135,0.029h-1.021c-0.029,0-0.06-0.01-0.09-0.029c-0.029-0.021-0.045-0.07-0.045-0.15v-6.09
	c0-0.15,0.021-0.25,0.061-0.301c0.04-0.05,0.104-0.095,0.194-0.135c0.29-0.141,0.636-0.25,1.035-0.33
	C180.46,45.885,180.83,45.846,181.16,45.846z M184.911,52.865v-10.35c0-0.091,0.05-0.136,0.149-0.136h1.035
	c0.101,0,0.15,0.045,0.15,0.136v10.35c0,0.09-0.05,0.135-0.15,0.135h-1.035C184.961,53,184.911,52.955,184.911,52.865z
	 M188.855,49.55c0.01-0.76,0.104-1.375,0.284-1.845c0.181-0.48,0.415-0.85,0.705-1.109c0.29-0.271,0.61-0.455,0.96-0.556
	c0.351-0.101,0.695-0.149,1.035-0.149c0.24,0,0.476,0.02,0.705,0.06c0.23,0.03,0.415,0.065,0.555,0.104
	c0.101,0.021,0.17,0.03,0.21,0.03c0.051-0.01,0.075-0.06,0.075-0.149c0-0.17-0.005-0.375-0.015-0.615c0-0.24-0.01-0.485-0.03-0.735
	c-0.01-0.26-0.024-0.51-0.045-0.75c-0.01-0.25-0.02-0.47-0.03-0.66c-0.01-0.19-0.02-0.325-0.029-0.405
	c-0.021-0.109-0.016-0.174,0.015-0.194c0.03-0.03,0.075-0.046,0.135-0.046h1.005c0.04,0,0.075,0.011,0.105,0.031
	c0.04,0.01,0.06,0.039,0.06,0.09c0.04,0.459,0.07,0.97,0.09,1.529c0.03,0.551,0.051,1.125,0.061,1.725
	c0.02,0.591,0.03,1.191,0.03,1.801c0.01,0.6,0.005,1.186-0.016,1.755c-0.01,0.56-0.029,1.085-0.06,1.575
	c-0.021,0.49-0.055,0.925-0.105,1.305c-0.02,0.08-0.055,0.15-0.104,0.21c-0.04,0.06-0.146,0.12-0.315,0.181
	c-0.229,0.1-0.55,0.189-0.96,0.27c-0.399,0.08-0.83,0.12-1.29,0.12c-0.41,0-0.79-0.05-1.14-0.149c-0.351-0.101-0.65-0.261-0.9-0.48
	c-0.33-0.28-0.58-0.665-0.75-1.155C188.925,50.846,188.845,50.25,188.855,49.55z M190.205,49.564c0,0.67,0.075,1.181,0.225,1.531
	c0.16,0.34,0.37,0.569,0.63,0.689c0.171,0.13,0.381,0.215,0.631,0.255c0.25,0.03,0.5,0.03,0.75,0c0.26-0.04,0.484-0.101,0.675-0.181
	c0.04-0.029,0.075-0.06,0.104-0.09c0.03-0.029,0.045-0.069,0.045-0.119c0.021-0.24,0.035-0.51,0.045-0.811
	c0.021-0.311,0.03-0.625,0.03-0.945c0.01-0.33,0.021-0.645,0.03-0.944c0.01-0.31,0.015-0.591,0.015-0.841c0-0.26,0-0.465,0-0.614
	c0-0.091-0.02-0.149-0.06-0.181c-0.03-0.039-0.07-0.064-0.12-0.074c-0.2-0.061-0.42-0.11-0.66-0.15s-0.45-0.061-0.63-0.061
	c-0.17,0-0.355,0.031-0.555,0.091c-0.2,0.06-0.391,0.175-0.57,0.345c-0.17,0.17-0.31,0.426-0.42,0.766
	C190.27,48.561,190.215,49.005,190.205,49.564z"/>
<g>
	<path fill-rule="evenodd" clip-rule="evenodd" fill="#EE3B57" d="M30.104,48.655c-0.482-0.737-0.858-1.276-1.198-1.84
		c-4.368-7.209-6.918-15.104-8.671-23.285c-1.58-7.37-2.416-14.829-2.453-22.37c-0.003-0.698-0.237-0.853-0.891-0.85
		C11.561,0.334,6.229,0.324,0.897,0.326c-0.262,0-0.525,0.025-0.896,0.044c0,0.467,0.002,0.877,0,1.288
		c-0.021,3.912,0.247,7.802,0.86,11.669c1.319,8.322,4.081,16.11,8.61,23.237c4.972,7.824,11.551,13.949,19.603,18.533
		c0.883,0.503,1.48,0.342,2.262-0.106c10.397-5.967,18.138-14.369,23.142-25.26c4.188-9.113,5.879-18.739,5.765-28.724
		c-0.006-0.571-0.206-0.695-0.731-0.693c-5.43,0.016-10.859,0.02-16.289-0.003c-0.601-0.002-0.742,0.209-0.756,0.762
		c-0.057,2.061-0.125,4.124-0.247,6.183c-0.474,7.948-1.785,15.757-4.008,23.404c-1.672,5.751-3.871,11.284-7.035,16.397
		C30.874,47.549,30.534,48.019,30.104,48.655z M42.659,55.674c0.316,0,0.631,0,0.948,0c5.254,0,10.507-0.014,15.761,0.016
		c0.719,0.003,0.904-0.214,0.901-0.917c-0.026-6.137-0.016-12.273-0.016-18.412c0-0.873,0-1.748,0-2.621
		C55.703,42.104,49.882,49.391,42.659,55.674z M17.521,55.628C10.329,49.382,4.548,42.097,0.051,33.55c0,7.496,0,14.771,0,22.078
		C5.912,55.628,11.716,55.628,17.521,55.628z"/>
	<path fill-rule="evenodd" clip-rule="evenodd" fill="#EE3855" d="M30.104,48.655c0.43-0.637,0.77-1.106,1.074-1.597
		c3.164-5.113,5.362-10.646,7.035-16.397c2.223-7.647,3.534-15.456,4.008-23.404c0.122-2.059,0.19-4.122,0.247-6.183
		c0.015-0.553,0.156-0.765,0.756-0.762c5.43,0.022,10.859,0.019,16.289,0.003c0.525-0.001,0.725,0.123,0.731,0.693
		c0.114,9.985-1.577,19.61-5.765,28.724c-5.004,10.891-12.745,19.293-23.142,25.26c-0.782,0.448-1.379,0.609-2.262,0.106
		C21.023,50.515,14.443,44.39,9.472,36.565C4.942,29.438,2.18,21.65,0.861,13.328C0.248,9.461-0.021,5.571,0.001,1.659
		c0.002-0.411,0-0.821,0-1.288c0.371-0.02,0.634-0.044,0.896-0.044c5.332-0.002,10.663,0.008,15.994-0.016
		c0.654-0.002,0.887,0.152,0.891,0.85c0.037,7.541,0.873,15,2.453,22.37c1.753,8.181,4.304,16.076,8.671,23.285
		C29.246,47.379,29.622,47.918,30.104,48.655z"/>
	<path fill-rule="evenodd" clip-rule="evenodd" fill="#EE3855" d="M42.659,55.674c7.223-6.283,13.044-13.569,17.594-21.935
		c0,0.873,0,1.748,0,2.621c0,6.139-0.01,12.275,0.016,18.412c0.003,0.703-0.182,0.92-0.901,0.917
		c-5.254-0.029-10.507-0.016-15.761-0.016C43.29,55.674,42.975,55.674,42.659,55.674z"/>
	<path fill-rule="evenodd" clip-rule="evenodd" fill="#EE3855" d="M17.521,55.628c-5.804,0-11.608,0-17.469,0
		c0-7.307,0-14.582,0-22.078C4.548,42.097,10.329,49.382,17.521,55.628z"/>
</g>
</svg>
