<?xml version="1.0" encoding="utf-8"?>
<!-- Generator: Adobe Illustrator 16.0.0, SVG Export Plug-In . SVG Version: 6.00 Build 0)  -->
<!DOCTYPE svg PUBLIC "-//W3C//DTD SVG 1.1//EN" "http://www.w3.org/Graphics/SVG/1.1/DTD/svg11.dtd">
<svg version="1.1" id="Layer_1" xmlns="http://www.w3.org/2000/svg" xmlns:xlink="http://www.w3.org/1999/xlink" x="0px" y="0px"
	 width="197px" height="56px" viewBox="0 0 197 56" enable-background="new 0 0 197 56" xml:space="preserve">
<g>
	<g>
		<path fill="#EE3B57" d="M30.625,48.654c-0.482-0.736-0.858-1.275-1.198-1.84c-4.368-7.209-6.918-15.104-8.671-23.284
			c-1.58-7.37-2.416-14.829-2.453-22.37c-0.003-0.698-0.237-0.854-0.891-0.85C12.083,0.334,6.75,0.324,1.418,0.326
			c-0.262,0-0.525,0.025-0.896,0.044c0,0.467,0.002,0.877,0,1.288C0.501,5.57,0.77,9.46,1.382,13.327
			c1.319,8.321,4.081,16.11,8.61,23.237c4.972,7.824,11.551,13.949,19.603,18.533c0.883,0.502,1.48,0.342,2.262-0.106
			C42.254,49.023,49.997,40.622,55,29.73c4.188-9.112,5.879-18.738,5.765-28.725c-0.007-0.57-0.206-0.695-0.731-0.693
			c-5.43,0.017-10.859,0.021-16.289-0.002c-0.6-0.002-0.741,0.209-0.756,0.762c-0.057,2.061-0.125,4.123-0.246,6.183
			c-0.475,7.948-1.785,15.757-4.008,23.404c-1.673,5.751-3.871,11.282-7.035,16.396C31.396,47.549,31.056,48.02,30.625,48.654z
			 M43.18,55.674c0.316,0,0.632,0,0.948,0c5.254,0,10.507-0.014,15.761,0.016c0.719,0.004,0.904-0.213,0.901-0.916
			c-0.026-6.138-0.016-12.272-0.017-18.412c0-0.872,0-1.747,0-2.62C56.225,42.104,50.403,49.391,43.18,55.674z M18.042,55.628
			c-7.192-6.246-12.973-13.53-17.47-22.078c0,7.496,0,14.771,0,22.078C6.434,55.628,12.237,55.628,18.042,55.628z"/>
		<path fill="#EE3855" d="M30.625,48.654c0.43-0.637,0.77-1.105,1.074-1.596c3.164-5.113,5.362-10.646,7.035-16.397
			c2.223-7.647,3.533-15.456,4.008-23.404c0.121-2.059,0.189-4.122,0.246-6.183c0.015-0.553,0.156-0.766,0.756-0.762
			c5.43,0.021,10.859,0.019,16.289,0.002c0.525,0,0.725,0.123,0.731,0.693c0.114,9.985-1.577,19.61-5.765,28.725
			c-5.004,10.892-12.745,19.293-23.143,25.261c-0.781,0.446-1.379,0.608-2.262,0.104c-8.05-4.582-14.63-10.707-19.601-18.533
			c-4.53-7.127-7.292-14.914-8.611-23.236C0.77,9.461,0.5,5.57,0.522,1.659c0.002-0.411,0-0.821,0-1.288
			c0.371-0.02,0.634-0.044,0.896-0.044C6.75,0.325,12.082,0.335,17.413,0.311c0.654-0.002,0.887,0.152,0.891,0.851
			c0.037,7.541,0.873,15,2.453,22.37c1.753,8.181,4.304,16.076,8.671,23.285C29.768,47.379,30.144,47.918,30.625,48.654z"/>
		<path fill="#EE3855" d="M43.18,55.674c7.224-6.283,13.045-13.568,17.594-21.935c0,0.872,0,1.747,0,2.62
			c0.001,6.14-0.01,12.274,0.017,18.412c0.003,0.703-0.183,0.92-0.901,0.918c-5.254-0.029-10.507-0.018-15.761-0.018
			C43.812,55.674,43.497,55.674,43.18,55.674z"/>
		<path fill="#EE3855" d="M18.042,55.628c-5.804,0-11.608,0-17.469,0c0-7.308,0-14.582,0-22.078
			C5.069,42.098,10.851,49.382,18.042,55.628z"/>
	</g>
	<text transform="matrix(1.0754 0 0 1 66.1895 27.2188)" font-family="'SVN-Franko'" font-size="30.184">M</text>
	<text transform="matrix(1.0754 0 0 1 90.7881 27.2188)" font-family="'SVN-Franko'" font-size="22.638">ƯỜI VINH</text>
	<text transform="matrix(1.0754 0 0 1 66.6973 46.7725)" font-family="'SVN-HapticScript'" font-size="18.865">Ceramic tiles</text>
</g>
</svg>
