<?xml version="1.0" encoding="utf-8"?>
<!-- Generator: Adobe Illustrator 16.0.0, SVG Export Plug-In . SVG Version: 6.00 Build 0)  -->
<!DOCTYPE svg PUBLIC "-//W3C//DTD SVG 1.1//EN" "http://www.w3.org/Graphics/SVG/1.1/DTD/svg11.dtd">
<svg version="1.1" id="Layer_1" xmlns="http://www.w3.org/2000/svg" xmlns:xlink="http://www.w3.org/1999/xlink" x="0px" y="0px"
	 width="150px" height="150px" viewBox="0 0 150 150" enable-background="new 0 0 150 150" xml:space="preserve">
<title>logo-prime</title>
<g>
	<circle fill="#0081C7" cx="74.333" cy="64.382" r="42.539"/>
	<path fill="#FFFFFF" d="M48.334,47.127c2.134,0.473,4.845,1.738,6.4,3.16c5.374,4.425,7.27,8.401,8.296,13.668
		c0.448,2.924,0.343,8.718-0.185,11.193c-2.37,12.668,3.292,19.042,10.484,21.045c-2.768-3.242-5.504-10.59-6.691-15.776
		c-2.052-8.116-1.684-15.776,0.631-24.469c1.212-4.239,3.741-9.085,5.823-13.404c1.844-3.661,3.002-10.851,2.318-15.803
		c5.822,4.583,8.77,14.644,9.033,20.621c0.158,7.243-2.291,16.198-4.24,21.043c-3.844,9.351-5.161,18.199-3.161,24.125
		c0.713,1.924,3.924,4.107,6.585,1.425c1.816-1.845,2.607-4.64,1.95-8.479c-0.632-2.347-2.214-7.242-2.714-12.591
		c-0.79-6.217,2.687-15.802,7.77-20.177c-0.658,8.297,1.608,12.485,4.559,17.726c4.056,6.875,4.582,16.831-3.056,24.333
		c-5.213,5.061-14.985,9.771-27.049,4.161c-6.691-3.081-14.302-12.141-14.512-23.097c-0.027-6.559,2-11.325,1.633-18.173
		C51.783,54.315,50.362,49.945,48.334,47.127z"/>
	<path fill="#E30016" d="M50.504,49.02c3.005,4.278,3.708,10.967,1.711,20.599c-1.931,12,2.546,19.525,9.388,25.645
		c7.415,6.209,19.306,6.735,27.949,0.043c7.855-6.865,9.413-16.013,3.646-25.886c-3.402-5.22-4.017-9.61-3.843-13.756
		c-7.83,10.532-5.813,19.394-3.203,27.687c1.537,4.848,0.986,11.213-3.991,13.119c-3.269,1.032-6.119-1.316-6.933-5.199
		c-0.809-3.664-1.141-10.729,2.174-19.458c4.013-10.179,6.82-21.193,4.717-29.354c-1.145-4.345-2.262-8.292-5.268-12.241
		c-0.109,6.231-1.117,10.575-4.583,17.091c-7.085,13.842-7.085,26.392-3.048,37.688c1.14,3.357,2.608,6.23,4.321,9.521
		c0.46,0.59,1.427,2.039,1.822,2.457c-1.886,0.196-3.114,0.021-4.058-0.287c-5.837-1.976-12.001-8.534-9.917-19.982
		c1.293-9.038,0.504-14.589-2.348-19.524C56.868,53.846,54.104,51.037,50.504,49.02z"/>
	<path fill="#0081C7" d="M126.217,123.229l-1.542-4.883l-1.562,4.883H126.217z M127.228,126.258h-5.143l-0.983,2.672h-3.937
		l5.509-15.315h4.061l5.393,15.315h-3.977L127.228,126.258z M108.771,120.465h0.69c0.777,0,1.338-0.175,1.691-0.523
		c0.146-0.139,0.272-0.344,0.383-0.623c0.113-0.284,0.17-0.535,0.17-0.769c0-0.227-0.051-0.476-0.151-0.748
		c-0.103-0.271-0.234-0.479-0.401-0.631c-0.345-0.353-0.908-0.528-1.69-0.528h-0.69L108.771,120.465L108.771,120.465z
		 M112.453,122.645l4.502,6.283h-4.638l-3.544-5.882v5.882h-3.726v-15.316h5.79c0.481,0,0.893,0.024,1.229,0.084
		c0.331,0.061,0.657,0.158,0.98,0.312c0.614,0.246,1.128,0.654,1.542,1.231c0.312,0.41,0.55,0.896,0.728,1.443
		c0.174,0.551,0.261,1.098,0.261,1.645c0,0.662-0.096,1.279-0.294,1.838c-0.197,0.563-0.476,1.031-0.836,1.4
		c-0.234,0.25-0.518,0.473-0.841,0.664C113.335,122.369,112.95,122.508,112.453,122.645z M102.688,116.941h-4.429v2.592h4.187v3.335
		h-4.187v2.726h4.429v3.333h-8.15v-15.317h8.15V116.941z M92.174,118.829c-0.32-0.412-0.679-0.755-1.066-1.033
		c-0.668-0.425-1.379-0.64-2.144-0.64c-0.969,0-1.812,0.313-2.519,0.935c-0.901,0.782-1.353,1.857-1.353,3.228
		c0,1.34,0.449,2.41,1.353,3.221c0.723,0.62,1.563,0.932,2.519,0.932c0.757,0,1.468-0.216,2.144-0.64
		c0.375-0.235,0.734-0.576,1.066-1.035v4.772c-0.613,0.252-1.201,0.447-1.76,0.578c-0.563,0.127-1.1,0.194-1.617,0.194
		c-0.854,0-1.699-0.157-2.54-0.471c-0.84-0.308-1.608-0.769-2.309-1.379c-0.857-0.743-1.528-1.655-2.007-2.74
		c-0.479-1.083-0.721-2.228-0.721-3.433c0-1.234,0.23-2.381,0.696-3.44c0.47-1.06,1.146-1.97,2.031-2.743
		c0.647-0.56,1.411-1.013,2.29-1.369c0.381-0.14,0.809-0.26,1.277-0.357c0.196-0.038,0.402-0.063,0.629-0.09
		c0.223-0.02,0.451-0.029,0.683-0.029c0.563,0,1.11,0.061,1.646,0.175c0.522,0.122,1.094,0.321,1.699,0.599L92.174,118.829
		L92.174,118.829z M74.31,123.229l-1.544-4.883l-1.561,4.883H74.31z M75.318,126.258h-5.142l-0.984,2.672h-3.936l5.507-15.315h4.061
		l5.391,15.315h-3.979L75.318,126.258z M60.233,113.611v11.984h4.468v3.33h-8.192v-15.314H60.233z M46.762,120.42h7.384
		c0,1.684-0.172,3.037-0.522,4.064c-0.525,1.539-1.386,2.744-2.581,3.613c-1.195,0.865-2.61,1.299-4.246,1.299
		c-1.261,0-2.415-0.244-3.462-0.738c-1.052-0.493-1.915-1.205-2.593-2.135c-0.489-0.674-0.877-1.469-1.165-2.396
		c-0.286-0.924-0.429-1.854-0.429-2.798c0-1.088,0.16-2.113,0.489-3.072c0.325-0.963,0.783-1.813,1.377-2.553
		c0.687-0.83,1.541-1.471,2.557-1.917c1.018-0.445,2.137-0.672,3.362-0.672c1.679,0,3.11,0.465,4.299,1.39
		c0.462,0.359,0.854,0.755,1.175,1.192c0.322,0.432,0.648,1.006,0.979,1.725l-3.539,1.562c-0.167-0.41-0.331-0.729-0.483-0.953
		l-0.241-0.328l-0.325-0.335c-0.572-0.509-1.253-0.763-2.045-0.763c-0.966,0-1.765,0.344-2.401,1.033
		c-0.405,0.434-0.73,0.98-0.975,1.646c-0.115,0.321-0.201,0.651-0.264,0.999c-0.063,0.344-0.094,0.693-0.094,1.047
		c0,0.708,0.115,1.375,0.34,2.003c0.228,0.624,0.543,1.171,0.948,1.644c0.637,0.728,1.486,1.09,2.549,1.09
		c0.946,0,1.694-0.295,2.245-0.892c0.189-0.198,0.337-0.426,0.441-0.677c0.107-0.25,0.197-0.604,0.272-1.049h-3.051L46.762,120.42
		L46.762,120.42z M36.785,128.928h-3.723v-15.316h3.723V128.928z M20.591,113.611l3.452,9.313l3.48-9.313h4.038l-6.104,15.314
		h-2.894l-6.021-15.314H20.591z"/>
</g>
</svg>
